# xmcd
#
# Track frame offsets: 
#        150
#        33439
#        64480
#        90924
#        121865
#        141396
#        167756
#        186303
#        210507
#        234397
#        249758
#        274799
#        296953
#        324463
#
# Disc length: 4669 seconds
#
# Revision: 0
# Processed by: cddbd v1.5.2PL0 Copyright (c) Steve Scherf et al.
# Submitted via: ExactAudioCopy v0.99pb3
#
DISCID=cc123b0e
DTITLE=Various Artist - 2004s Golden Blues Ballads
DYEAR=2004
DGENRE=Blues
TTITLE0=JOE BONAMASSA - Blues de luxe
TTITLE1=TINSLEY ELLIS - The last song
TTITLE2=CHRIS REA - Restless soul
TTITLE3=JOE BONAMASSA - Burning hell
TTITLE4=BILL WYMAN - Cry baby
TTITLE5=DIANA KRALL - Love me like a man
TTITLE6=J J CALE - Blues for mama
TTITLE7=KEB MO - Walk back in
TTITLE8=BONNIE RAITT - Back around
TTITLE9=KATIE MELUA - Learnin the blues
TTITLE10=ETTA JAMES - Crawlin king snake
TTITLE11=GARY MOORE - Memory pain
TTITLE12=KIM WILSON - One more mile
TTITLE13=TONY JOE WHITE - Bayou bleus
EXTD=
EXTT0=
EXTT1=
EXTT2=
EXTT3=
EXTT4=
EXTT5=
EXTT6=
EXTT7=
EXTT8=
EXTT9=
EXTT10=
EXTT11=
EXTT12=
EXTT13=
PLAYORDER=
